<?xml version="1.0" encoding="utf-8"?>
<!-- Generator: Adobe Illustrator 24.0.3, SVG Export Plug-In . SVG Version: 6.00 Build 0)  -->
<svg version="1.1" id="Layer_1" xmlns="http://www.w3.org/2000/svg" xmlns:xlink="http://www.w3.org/1999/xlink" x="0px" y="0px"
	 width="106.13px" height="75.48px" viewBox="0 0 106.13 75.48" style="enable-background:new 0 0 106.13 75.48;"
	 xml:space="preserve">
<g>
	<path style="fill:#662D91;" d="M16.87,9.18h3.52v5.34h-3.52V9.18z M25.09,14.52h3.52V9.18h-3.52V14.52z M33.31,14.52h3.52V9.18
		h-3.52V14.52z M16.87,24.88h3.52v-5.34h-3.52V24.88z M25.09,24.88h3.52v-5.34h-3.52V24.88z M33.31,24.88h3.52v-5.34h-3.52V24.88z
		 M16.87,35.23h3.52v-5.34h-3.52V35.23z M25.09,35.23h3.52v-5.34h-3.52V35.23z M33.31,35.23h3.52v-5.34h-3.52V35.23z M16.87,45.59
		h3.52v-5.34h-3.52V45.59z M25.09,45.59h3.52v-5.34h-3.52V45.59z M33.31,45.59h3.52v-5.34h-3.52V45.59z M16.87,56.05h3.52v-5.34
		h-3.52V56.05z M25.09,56.05h3.52v-5.34h-3.52V56.05z M33.31,56.05h3.52v-5.34h-3.52V56.05z M16.87,66.41h3.52v-5.34h-3.52V66.41z
		 M25.09,66.41h3.52v-5.34h-3.52V66.41z M33.31,66.41h3.52v-5.34h-3.52V66.41z M50.07,35.23h3.52v-5.34h-3.52V35.23z M58.29,35.23
		h3.52v-5.34h-3.52V35.23z M66.52,35.23h3.52v-5.34h-3.52V35.23z M50.07,45.59h3.52v-5.34h-3.52V45.59z M58.29,45.59h3.52v-5.34
		h-3.52V45.59z M66.52,45.59h3.52v-5.34h-3.52V45.59z M50.07,56.05h3.52v-5.34h-3.52V56.05z M58.29,56.05h3.52v-5.34h-3.52V56.05z
		 M66.52,56.05h3.52v-5.34h-3.52V56.05z M50.07,66.41h3.52v-5.34h-3.52V66.41z M58.29,66.41h3.52v-5.34h-3.52V66.41z M66.52,66.41
		h3.52v-5.34h-3.52V66.41z M106.13,71.96v3.52H76.66h-33.2h-33.1H0v-3.52h8.54V1.82C8.54,0.85,9.29,0,10.36,0h33.2
		c0.96,0,1.82,0.75,1.82,1.82v18.58h31.39c0.96,0,1.82,0.75,1.82,1.82v49.75h12.17v-5.02c-3.63-0.53-6.41-3.74-6.41-7.47v-9.82
		c0-4.16,3.42-7.58,7.58-7.58h1.17c4.16,0,7.58,3.42,7.58,7.58v9.82c0,3.74-2.78,6.83-6.41,7.47v5.02H106.13z M90.64,63.31v-8.43
		h3.52v8.43c1.6-0.53,2.78-2.03,2.78-3.84v-9.82c0-2.24-1.82-3.95-3.95-3.95h-1.17c-2.24,0-3.95,1.82-3.95,3.95v9.82
		C87.76,61.28,89.04,62.89,90.64,63.31z M41.75,71.96V3.63H12.06v68.33H41.75z M74.95,71.96V24.02H45.27v47.94H74.95z"/>
</g>
</svg>
