<?xml version="1.0" encoding="utf-8"?>
<!-- Generator: Adobe Illustrator 24.0.3, SVG Export Plug-In . SVG Version: 6.00 Build 0)  -->
<svg version="1.1" id="Layer_1" xmlns="http://www.w3.org/2000/svg" xmlns:xlink="http://www.w3.org/1999/xlink" x="0px" y="0px"
	 width="85.22px" height="85.14px" viewBox="0 0 85.22 85.14" style="enable-background:new 0 0 85.22 85.14;" xml:space="preserve"
	>
<g>
	<path style="fill:#F7931E;stroke:#F7931E;stroke-width:0.9155;stroke-miterlimit:10;" d="M84.7,82.4L72.94,40.11
		c-0.35-0.7-1.05-1.23-1.75-1.23H56.04c3.57-6.28,6.55-12.86,6.55-17.37c0-11.58-8.95-21.06-20-21.06s-20,9.48-20,21.06
		c0,4.51,2.98,11.09,6.55,17.37H16.44c-0.7,0-1.4,0.53-1.58,1.23L0.65,82.4c-0.35,0.53-0.18,1.05,0.18,1.58
		c0.35,0.35,0.88,0.7,1.4,0.7h80.71c0.53,0,1.05-0.18,1.4-0.7C84.7,83.45,84.87,82.93,84.7,82.4z M42.59,3.97
		c9.3,0,16.49,7.72,16.49,17.55c0,7.37-10.88,23.86-16.49,31.58c-2.36-3.25-5.66-8.02-8.68-13.02c-0.09-0.3-0.24-0.56-0.45-0.75
		c-3.97-6.66-7.36-13.6-7.36-17.81C26.09,11.86,33.46,3.97,42.59,3.97z M4.68,81.17l12.98-38.78H31.2
		c4.69,7.69,9.62,14.2,9.98,14.74c0.35,0.53,0.88,0.7,1.4,0.7s1.05-0.18,1.4-0.7c0.36-0.54,5.29-7.05,9.98-14.74h15.99l10.7,38.78
		H4.68z"/>
	<path style="fill:#F7931E;stroke:#F7931E;stroke-width:0.9155;stroke-miterlimit:10;" d="M42.59,32.57
		c5.79,0,10.53-4.91,10.53-11.05s-4.74-11.05-10.53-11.05s-10.53,4.91-10.53,11.05S36.79,32.57,42.59,32.57z M42.59,13.97
		c3.86,0,7.02,3.33,7.02,7.54s-3.16,7.54-7.02,7.54s-7.02-3.33-7.02-7.54S38.72,13.97,42.59,13.97z"/>
</g>
</svg>
