<?xml version="1.0" encoding="utf-8"?>
<!-- Generator: Adobe Illustrator 24.0.3, SVG Export Plug-In . SVG Version: 6.00 Build 0)  -->
<svg version="1.1" id="Layer_1" xmlns="http://www.w3.org/2000/svg" xmlns:xlink="http://www.w3.org/1999/xlink" x="0px" y="0px"
	 width="99.64px" height="78.7px" viewBox="0 0 99.64 78.7" style="enable-background:new 0 0 99.64 78.7;" xml:space="preserve">
<g>
	<path style="fill:#39B54A;" d="M60.15,31.53c5.32-5.95,4.38-16.07,4.28-17.12C63.91,2.72,55.25-0.09,50.24,0.01
		c-5.11-0.21-13.67,2.71-14.19,14.4c-0.1,1.04-0.94,11.17,4.28,17.12c2.4,2.71,5.64,4.07,9.71,4.17h0.1h0.1h0.1h0.1
		C54.41,35.6,57.65,34.24,60.15,31.53z M50.24,31.74L50.24,31.74c-0.1,0-0.1,0-0.1,0c-2.92,0-5.22-0.94-6.89-2.92
		c-4.28-4.8-3.34-14.09-3.34-14.19v-0.1c0.42-9.92,7.72-10.75,9.92-10.75c0.1,0,0.21,0,0.31,0h0.1c1.67-0.1,9.71,0.1,10.23,10.75
		v0.1c0,0.1,0.94,9.29-3.34,14.09C55.46,30.8,53.26,31.74,50.24,31.74z M54.62,36.54c-1.04,0-1.98,0.83-1.98,1.98
		c0,0.73-0.31,1.36-0.83,1.77c-0.1,0.1-0.21,0.1-0.31,0.21c-0.42,0.21-0.83,0.42-1.36,0.42c-1.36,0-2.4-1.04-2.4-2.4
		c0-1.04-0.83-1.98-1.98-1.98s-1.98,0.83-1.98,1.98c0,1.46,0.52,2.82,1.36,3.86l-1.36,30.48c0,0.63,0.21,1.15,0.63,1.57l4.17,3.76
		c0.42,0.31,0.83,0.52,1.36,0.52c0.42,0,0.94-0.21,1.36-0.52l4.28-3.86c0.42-0.42,0.63-0.94,0.63-1.57L54.83,42.7
		c1.04-1.15,1.57-2.61,1.57-4.17C56.6,37.48,55.77,36.54,54.62,36.54z M50.13,74.11l-2.19-1.98l1.15-27.34
		c0.42,0.1,0.73,0.1,1.15,0.1c0.31,0,0.63,0,0.83-0.1l1.25,27.24L50.13,74.11z M97.52,54.18h0.1c1.04,0,1.88-0.83,1.98-1.77
		c0.31-4.91-1.57-8.35-5.11-9.18c-6.58-1.67-9.18-3.65-10.02-4.91c0.42-0.31,0.83-0.73,1.25-1.15c4.07-4.49,3.44-12.21,3.34-13.05
		c-0.42-9.08-7.1-11.27-11.06-11.17c-3.97-0.1-10.65,2.09-11.06,11.17c-0.1,0.83-0.73,8.56,3.34,13.05
		c0.42,0.52,0.94,0.94,1.46,1.36c-0.42,0.42-1.04,1.04-2.09,1.77c-5.01-1.67-8.87-4.38-8.87-4.38c-0.83-0.63-2.09-0.42-2.71,0.52
		c-0.63,0.83-0.42,2.09,0.52,2.71c0.21,0.21,5.74,3.97,12.52,5.74c3.44,0.83,3.65,5.22,3.44,7.62c0,0.1,0,0.1,0,0.21
		c0,1.36-0.1,3.86-0.42,4.7c-0.42,1.04,0.1,2.09,1.15,2.5c0.21,0.1,0.52,0.1,0.73,0.1c0.73,0,1.46-0.42,1.77-1.25
		c0.73-1.77,0.73-5.22,0.73-6.16c0.31-5.22-1.25-9.08-4.38-10.85c0.63-0.63,1.04-1.15,1.36-1.67c0.73,0.21,1.57,0.31,2.4,0.31H78
		h0.1h0.1h0.1c0.94,0,1.88-0.1,2.71-0.42c1.25,2.09,4.38,4.91,12.63,6.99c2.19,0.52,2.3,3.44,2.19,5.11
		C95.64,53.13,96.47,54.07,97.52,54.18z M78,36.43L78,36.43c-2.09,0-3.65-0.63-4.8-1.98c-3.03-3.44-2.4-10.02-2.4-10.12v-0.1
		c0.31-6.99,5.32-7.51,6.89-7.51c0.1,0,0.21,0,0.21,0H78c1.15,0,6.78,0.1,7.1,7.51v0.1c0.21,1.88,0.21,7.31-2.4,10.12
		C81.65,35.7,80.09,36.33,78,36.43z M5.15,43.22C1.5,44.16-0.28,47.5,0.04,52.4c0.1,1.04,0.94,1.77,1.98,1.77h0.1
		c1.04-0.1,1.88-1.04,1.77-2.09c-0.1-1.67,0-4.59,2.19-5.11c8.25-2.09,11.38-4.91,12.63-6.99c0.83,0.21,1.77,0.31,2.71,0.42h0.1h0.1
		h0.1c0.83,0,1.67-0.1,2.4-0.31c0.31,0.63,0.94,1.25,1.67,1.98c-2.71,1.88-4.07,5.53-3.76,10.44c0,0.83,0,4.38,0.73,6.16
		c0.31,0.73,1.04,1.25,1.77,1.25c0.21,0,0.52,0,0.73-0.1c1.04-0.42,1.46-1.57,1.04-2.5c-0.31-0.83-0.42-3.34-0.42-4.7
		c0-0.1,0-0.1,0-0.21c-0.21-2.5,0-6.78,3.44-7.62c6.89-1.77,12.32-5.53,12.52-5.74c0.83-0.63,1.04-1.88,0.52-2.71
		c-0.63-0.83-1.88-1.15-2.71-0.52c0,0-4.28,2.92-9.6,4.59c-1.25-0.73-1.98-1.36-2.4-1.88c0.52-0.42,1.04-0.83,1.46-1.36
		c4.07-4.49,3.44-12.21,3.34-13.05c-0.42-9.08-7.1-11.27-11.06-11.17c-3.97-0.1-10.65,2.09-11.06,11.17
		c-0.1,0.83-0.73,8.56,3.34,13.05c0.42,0.42,0.83,0.83,1.25,1.15C14.33,39.46,11.72,41.55,5.15,43.22z M14.54,24.33v-0.1
		c0.31-6.99,5.32-7.51,6.89-7.51c0.1,0,0.21,0,0.21,0h0.1c1.15,0,6.78,0.1,7.1,7.51v0.1c0,0.1,0.63,6.68-2.4,10.12
		c-1.15,1.25-2.71,1.98-4.8,1.98h-0.1c-2.09,0-3.65-0.63-4.8-1.98C13.81,31.11,14.54,24.43,14.54,24.33z"/>
</g>
</svg>
